<?xml version="1.0" standalone="no"?>
<!DOCTYPE svg PUBLIC "-//W3C//DTD SVG 20010904//EN"
 "http://www.w3.org/TR/2001/REC-SVG-20010904/DTD/svg10.dtd">
<svg version="1.0" xmlns="http://www.w3.org/2000/svg"
 width="800.000000pt" height="800.000000pt" viewBox="0 0 800.000000 800.000000"
 preserveAspectRatio="xMidYMid meet">
<metadata>
Created by potrace 1.11, written by Peter Selinger 2001-2013
</metadata>
<g transform="translate(0.000000,800.000000) scale(0.100000,-0.100000)"
fill="#000000" stroke="none">
<path d="M3789 6666 c-2 -2 -40 -6 -84 -10 -310 -26 -686 -122 -964 -247 -101
-45 -284 -140 -302 -155 -8 -8 -19 -14 -23 -14 -15 0 -207 -131 -314 -215
-115 -90 -302 -267 -382 -364 -25 -29 -50 -59 -56 -65 -12 -13 -144 -194 -161
-222 -112 -180 -195 -343 -247 -484 -15 -41 -31 -84 -36 -95 -24 -57 -81 -285
-94 -380 -4 -23 -8 -51 -11 -64 -14 -71 -19 -166 -19 -341 -1 -227 10 -344 45
-500 6 -25 12 -52 14 -60 2 -8 11 -44 20 -80 9 -36 19 -72 20 -80 7 -29 73
-205 103 -275 50 -115 135 -272 212 -389 31 -47 104 -151 114 -162 6 -7 27
-31 46 -55 61 -76 121 -142 194 -214 93 -91 174 -163 256 -225 25 -19 47 -37
50 -40 4 -6 144 -98 235 -156 91 -57 299 -160 440 -216 221 -89 519 -165 760
-194 217 -27 581 -26 785 1 267 35 525 102 765 197 106 42 361 167 406 199 15
10 29 19 32 19 14 0 287 192 333 235 7 5 31 26 55 45 49 39 224 213 282 279
346 397 576 917 624 1411 10 105 11 399 1 500 -8 88 -43 290 -58 340 -6 19
-13 42 -15 51 -8 37 -47 165 -55 184 -5 11 -21 52 -36 90 -29 75 -106 239
-151 320 -53 94 -187 292 -214 315 -3 3 -10 12 -15 21 -34 61 -247 278 -410
419 -71 62 -240 179 -359 249 -193 115 -354 189 -555 257 -58 20 -112 38 -120
41 -8 3 -19 7 -25 9 -5 1 -44 11 -85 22 -41 11 -93 23 -115 27 -22 5 -44 9
-50 11 -30 7 -197 35 -240 40 -27 3 -63 8 -80 10 -33 6 -510 15 -516 10z"/>
</g>
</svg>
